<svg width="16" height="17" viewBox="0 0 16 17" fill="none" xmlns="http://www.w3.org/2000/svg">
<path d="M13.9887 15.684L13.9885 15.6838L0.907607 2.60293C0.907577 2.6029 0.907547 2.60287 0.907516 2.60284C0.592351 2.2879 0.592351 1.77714 0.907516 1.4622M13.9887 15.684L15.1291 15.6838C15.4444 15.3688 15.4442 14.8583 15.1291 14.5432L2.04834 1.46239C2.04829 1.46234 2.0482 1.46225 2.04816 1.4622C1.73336 1.14691 1.22239 1.1471 0.907516 1.4622M13.9887 15.684C14.1462 15.8412 14.3528 15.92 14.5589 15.92M13.9887 15.684L14.5589 15.92M0.907516 1.4622C0.907486 1.46223 0.907456 1.46226 0.907426 1.46229L1.08429 1.63898L0.907607 1.46211C0.907577 1.46214 0.907547 1.46217 0.907516 1.4622ZM14.5589 15.92C14.765 15.92 14.9717 15.8413 15.1291 15.6839L14.5589 15.92Z" fill="#01D19F" stroke="#01D19F" stroke-width="0.5"/>
<path d="M1.47795 15.92C1.27192 15.92 1.06498 15.8413 0.907516 15.6838C0.592401 15.3687 0.592271 14.8581 0.907607 14.5431L13.9885 1.4622L13.9885 1.4622C14.3036 1.14715 14.814 1.14696 15.1291 1.46211C15.1291 1.46217 15.1292 1.46223 15.1292 1.46229L14.9524 1.63898C15.1699 1.85629 15.1699 2.20876 14.9524 2.42607L1.47795 15.92ZM1.47795 15.92C1.68385 15.92 1.89083 15.8414 2.04816 15.6838L1.47795 15.92ZM15.1291 2.60293L2.04834 15.6837L15.1291 2.60293ZM15.1291 2.60293C15.1291 2.6029 15.1291 2.60287 15.1291 2.60284L15.1291 2.60293Z" fill="#01D19F" stroke="#01D19F" stroke-width="0.5"/>
</svg>
