<svg width="56" height="56" viewBox="0 0 56 56" fill="none" xmlns="http://www.w3.org/2000/svg">
<path d="M8.25285 46.0941L0.938232 50.6658L8.25285 55.2375V52.4946H25.6382C25.6362 52.4486 25.6244 52.4046 25.6244 52.3587C25.6244 51.6887 25.8027 51.0266 26.141 50.4469L27.0808 48.837H8.25252L8.25285 46.0941Z" fill="#01D19F"/>
<path d="M48.4818 9.52122L55.7964 4.94992L48.4818 0.378235V3.12117H26.5383V6.77828H48.4818V9.52122Z" fill="#01D19F"/>
<path d="M19.2246 4.94989H21.0534V6.77864H19.2246V4.94989Z" fill="#01D19F"/>
<path d="M15.5667 4.94989H17.3954V6.77864H15.5667V4.94989Z" fill="#01D19F"/>
<path d="M22.8815 4.94989H24.7102V6.77864H22.8815V4.94989Z" fill="#01D19F"/>
<path d="M40.2531 15.0069C40.2531 14.5022 39.8436 14.0927 39.3389 14.0927H6.4237C5.91897 14.0927 5.50952 14.5022 5.50952 15.0069V17.7498H40.2537L40.2531 15.0069Z" fill="black"/>
<path d="M5.50989 19.5788H40.254V21.4075H5.50989V19.5788Z" fill="#01D19F"/>
<path d="M43.1282 31.6762C42.7234 30.9824 41.9718 30.5508 41.1682 30.5508C40.3646 30.5508 39.613 30.9824 39.207 31.6762H39.2078L27.7217 51.3685C27.5468 51.6681 27.4539 52.011 27.4539 52.3584C27.4539 53.4409 28.3351 54.3226 29.4177 54.3226H52.9178C54.0011 54.3226 54.8828 53.4409 54.8828 52.3584C54.8828 52.0109 54.7894 51.668 54.6149 51.3673L43.1282 31.6762ZM41.1682 51.5801C40.158 51.5801 47.7273 51.1674 47.7273 50.1568C47.7273 49.1466 40.7301 47.2889 41.7407 47.2889C40.8478 49.4041 42.9969 48.7407 42.9969 49.7513C42.9966 50.7615 42.1784 51.5801 41.1682 51.5801ZM38.0889 41.2323C38.0889 42.2425 42.1784 44.2654 41.1678 44.2654C40.1576 44.2654 44.8714 45.7532 44.8714 44.7426L39.339 36.9508C39.339 35.9406 40.1572 35.1221 41.1678 35.1221C42.178 35.1221 38.7433 34.1115 38.7433 35.1221L38.0889 41.2323Z" fill="black"/>
<path d="M6.42389 36.0364H34.5478L37.629 30.7553C38.2033 29.7696 39.165 29.0849 40.2541 28.8335L40.2537 23.2359H5.5105V35.1216C5.5105 35.6267 5.91995 36.0362 6.42468 36.0362L6.42389 36.0364ZM26.5384 29.6363H32.0243V33.2935H26.5384V29.6363ZM17.3954 29.6363H22.8813V33.2935H17.3954V29.6363ZM8.25244 29.6363H13.7383V33.2935H8.25244V29.6363Z" fill="black"/>
</svg>
