<svg width="16" height="13" viewBox="0 0 16 13" fill="none" xmlns="http://www.w3.org/2000/svg">
<path d="M15.1975 1.7208C14.6379 1.9683 14.0446 2.13085 13.437 2.20306C14.0774 1.82006 14.5567 1.21729 14.7856 0.507078C14.1846 0.864745 13.5257 1.1154 12.8389 1.251C12.3776 0.757429 11.7662 0.430094 11.0997 0.319878C10.4332 0.209662 9.74889 0.322741 9.15326 0.641535C8.55764 0.960329 8.08402 1.46698 7.80604 2.08271C7.52806 2.69845 7.4613 3.38877 7.61613 4.04637C6.39735 3.98528 5.20505 3.66856 4.11662 3.11677C3.0282 2.56499 2.06798 1.79046 1.29832 0.84349C1.02588 1.31143 0.882719 1.84336 0.883485 2.38483C0.883485 3.44757 1.42438 4.38645 2.24672 4.93614C1.76007 4.92082 1.28413 4.78939 0.858566 4.55282V4.59093C0.858713 5.29872 1.10363 5.98467 1.5518 6.53249C1.99997 7.08031 2.6238 7.45628 3.31753 7.59665C2.86576 7.71908 2.39207 7.73712 1.9323 7.64942C2.12789 8.25866 2.50912 8.79147 3.02259 9.17325C3.53607 9.55504 4.15609 9.76669 4.79583 9.77857C4.16001 10.2779 3.43199 10.6471 2.65341 10.8649C1.87483 11.0827 1.06095 11.1449 0.258301 11.048C1.65943 11.9491 3.29048 12.4274 4.95635 12.4259C10.5947 12.4259 13.6781 7.75497 13.6781 3.70409C13.6781 3.57217 13.6745 3.43877 13.6686 3.30831C14.2688 2.87455 14.7868 2.3372 15.1982 1.72153L15.1975 1.7208Z" fill="#151414"/>
</svg>
