<svg width="16" height="13" viewBox="0 0 16 13" fill="none" xmlns="http://www.w3.org/2000/svg">
<path d="M14.9331 2.3895C15.2623 3.67297 15.2623 6.35227 15.2623 6.35227C15.2623 6.35227 15.2623 9.03157 14.9331 10.315C14.7502 11.0245 14.215 11.5827 13.5373 11.7714C12.3064 12.1142 8.05984 12.1142 8.05984 12.1142C8.05984 12.1142 3.81546 12.1142 2.5824 11.7714C1.90177 11.5798 1.36735 11.0223 1.18657 10.315C0.857422 9.03157 0.857422 6.35227 0.857422 6.35227C0.857422 6.35227 0.857422 3.67297 1.18657 2.3895C1.36951 1.68006 1.90465 1.12187 2.5824 0.933167C3.81546 0.590332 8.05984 0.590332 8.05984 0.590332C8.05984 0.590332 12.3064 0.590332 13.5373 0.933167C14.2179 1.12475 14.7523 1.68222 14.9331 2.3895ZM6.61936 8.87311L10.9408 6.35227L6.61936 3.83142V8.87311Z" fill="#151414"/>
</svg>
