<svg width="36" height="56" viewBox="0 0 36 56" fill="none" xmlns="http://www.w3.org/2000/svg">
<path d="M15.4479 0.386756C14.5883 0.357368 13.7169 0.404308 12.8405 0.531249C5.83175 1.55128 0.552142 7.46121 0.325393 14.5406C0.106198 21.4008 4.69936 27.457 11.2898 29.1581V33.399C10.1261 32.2084 8.50687 31.4651 6.71826 31.4651H5.80395C5.51007 31.4651 5.23373 31.6067 5.06189 31.8451C4.89005 32.0835 4.8431 32.3904 4.93617 32.6692C4.93617 32.6692 5.80395 35.326 5.80395 37.8656V47.9231C5.80395 51.9595 9.082 55.2376 13.1185 55.2376H16.7757V53.4089H13.1185C10.0633 53.4089 7.63258 50.9782 7.63258 47.9231V37.8656C7.63258 35.9631 7.29665 34.4276 7.01297 33.3532C9.40157 33.512 11.2899 35.4349 11.2899 37.8656V42.4372H13.1185V16.8365C13.1185 15.8156 13.9263 15.0078 14.9471 15.0078C15.9679 15.0078 16.7757 15.8156 16.7757 16.8365V35.1227H18.6044V29.6368C18.6044 28.616 19.4121 27.8082 20.433 27.8082C21.4538 27.8082 22.2616 28.616 22.2616 29.6368V36.9513H24.0902V31.4655C24.0902 30.4446 24.898 29.6368 25.9189 29.6368C26.9397 29.6368 27.7475 30.4446 27.7475 31.4655V38.7799H29.5761V33.2941C29.5761 32.2732 30.3839 31.4655 31.4047 31.4655C32.4256 31.4655 33.2333 32.2732 33.2333 33.2941V51.5803C33.2333 52.6012 32.4256 53.4089 31.4047 53.4089V55.2376C33.4138 55.2376 35.062 53.5894 35.062 51.5803V33.2941C35.062 31.285 33.4138 29.6368 31.4047 29.6368C30.648 29.6368 29.9418 29.8703 29.3565 30.2691C28.8556 28.8445 27.5075 27.8082 25.9189 27.8082C25.1621 27.8082 24.4559 28.0417 23.8706 28.4404C23.7008 27.9576 23.4387 27.5204 23.0955 27.1531C28.5058 23.5265 30.9189 16.6766 28.8295 10.3924C26.8743 4.51149 21.464 0.591751 15.4471 0.387259L15.4479 0.386756ZM15.3895 2.21172C20.6591 2.38846 25.3812 5.81391 27.0948 10.9687C29.0215 16.7632 26.5875 23.0742 21.3163 26.0993C21.0318 26.0279 20.7395 25.9797 20.4342 25.9797C19.7668 25.9797 19.1464 26.1736 18.6056 26.4903V23.378C22.4257 21.7094 24.6657 17.6362 23.9645 13.4851C23.2355 9.16898 19.5345 5.96774 15.1589 5.86732C10.7828 5.76691 6.93864 8.79479 6.0121 13.0728C5.09085 17.326 7.30886 21.6445 11.2911 23.3838V27.2712C5.75944 25.6271 1.96792 20.4551 2.15485 14.5994C2.35282 8.39386 6.96111 3.23473 13.1047 2.34027C13.8728 2.22843 14.6357 2.18638 15.3888 2.21169L15.3895 2.21172Z" fill="black"/>
<path d="M15.1156 7.69594C18.6268 7.77635 21.5754 10.3279 22.1603 13.7904C22.6766 16.8476 21.217 19.8338 18.6051 21.3387V16.837C18.6051 14.8279 16.957 13.1797 14.9479 13.1797C12.9388 13.1797 11.2906 14.8279 11.2906 16.837V21.3351C8.56484 19.7636 7.11908 16.6014 7.79954 13.4602C8.54283 10.0278 11.6049 7.61507 15.1156 7.69594Z" fill="#01D19F"/>
</svg>
