<svg width="65" height="56" viewBox="0 0 65 56" fill="none" xmlns="http://www.w3.org/2000/svg">
<path d="M63.1683 18.4647L46.7807 2.07717C46.0449 1.34086 45.0689 0.935913 44.028 0.935913C42.9923 0.935913 42.0176 1.3404 41.2805 2.07717C40.5506 2.807 40.1462 3.78215 40.1462 4.82391C40.1462 5.49403 40.3192 6.14432 40.6372 6.7149L28.7481 8.63871C28.4362 8.69193 28.1377 8.78449 27.8526 8.90389L24.1039 7.78254C24.6945 7.05271 24.9995 6.1503 24.9796 5.20842C24.9532 4.15371 24.5149 3.1781 23.7523 2.44829C23.016 1.75178 22.0538 1.36674 21.0389 1.36674C19.9509 1.36674 18.9355 1.80454 18.1863 2.58763L1.95746 19.6529C1.23411 20.416 0.849522 21.4176 0.875907 22.4657C0.902286 23.5204 1.33361 24.496 2.0968 25.2259C2.8331 25.9224 3.79527 26.3074 4.81013 26.3074C5.43398 26.3074 6.03742 26.1616 6.57483 25.8895C6.25642 27.6278 6.79373 29.4855 8.16726 30.7924L10.3035 32.8555L9.26174 33.8973C8.49211 34.6734 8.06774 35.7017 8.06774 36.7967C8.06774 37.8908 8.49258 38.9191 9.26174 39.6962C10.0647 40.4917 11.1129 40.8902 12.1612 40.8902C12.5129 40.8902 12.8711 40.8439 13.2094 40.7574C13.1234 41.0957 13.0766 41.4474 13.0766 41.8056C13.0766 42.8997 13.5015 43.9289 14.2776 44.7051C15.0736 45.5011 16.1218 45.8991 17.1701 45.8991C17.5283 45.8991 17.88 45.8588 18.2183 45.7663C18.1322 46.1046 18.0855 46.4563 18.0855 46.8145C18.0855 47.909 18.5103 48.9443 19.2865 49.7139C20.0825 50.5169 21.1307 50.9149 22.1859 50.9149C22.5377 50.9149 22.8894 50.8691 23.2342 50.7756C23.1411 51.1149 23.0949 51.4657 23.0949 51.8303C23.0949 52.9249 23.5197 53.9537 24.2959 54.7228C25.0988 55.5257 26.147 55.9243 27.1953 55.9243C28.2436 55.9243 29.2917 55.5253 30.0878 54.7228H30.0943L31.4082 53.4099L32.3435 54.2924V54.2989C32.3435 54.2989 32.3499 54.2989 32.3499 54.3054L32.4295 54.3785C32.443 54.3919 32.4494 54.3979 32.4629 54.4049C33.2723 55.1213 34.2872 55.479 35.3026 55.479C36.4439 55.479 37.5782 55.0343 38.4209 54.1452C39.3631 53.1567 39.7338 51.8428 39.5621 50.5895C40.18 50.9075 40.8561 51.0607 41.5258 51.0607C42.6675 51.0607 43.8023 50.6159 44.644 49.7264C45.5664 48.7513 45.9509 47.4508 45.7918 46.21C46.4619 46.5821 47.2116 46.7672 47.9549 46.7672C49.0962 46.7672 50.224 46.3368 51.0394 45.4807C51.829 44.6514 52.2344 43.536 52.1811 42.3559C52.1737 42.236 52.1612 42.1231 52.1478 42.0102C52.8374 42.4355 53.6264 42.647 54.4095 42.647C55.5512 42.647 56.686 42.2022 57.5278 41.3132C58.3173 40.4839 58.7352 39.3958 58.7089 38.2411C58.6825 37.0934 58.2044 36.0253 57.3751 35.2418L54.484 32.4447L55.088 31.8407V31.8343L57.3371 29.5915C58.651 28.2776 59.1351 26.4398 58.7843 24.7349C59.2952 24.9737 59.852 25.0996 60.4231 25.0996C61.4639 25.0996 62.4399 24.6951 63.1757 23.9584C64.6882 22.4464 64.6882 19.9783 63.1688 18.4655L63.1683 18.4647ZM4.80949 25.1989C4.07966 25.1989 3.38968 24.9203 2.85879 24.4158C2.31453 23.8984 2.00307 23.195 1.98318 22.4387C1.96328 21.689 2.24188 20.9656 2.75929 20.4219L18.994 3.35784C19.5313 2.7937 20.2611 2.48224 21.0373 2.48224C21.7671 2.48224 22.4571 2.75436 22.988 3.25835C23.5387 3.77575 23.8437 4.47924 23.8636 5.23547C23.8835 5.99168 23.6049 6.7086 23.0875 7.25228L6.85983 24.3175C6.32252 24.8882 5.59273 25.1996 4.80961 25.1996L4.80949 25.1989ZM56.6059 36.0399C57.2228 36.6309 57.5745 37.4199 57.6009 38.2757C57.6208 39.1249 57.3089 39.9343 56.7184 40.5512C55.511 41.8258 53.4872 41.8716 52.2136 40.6646L50.8136 39.3303L50.8002 39.3169L48.5237 37.1538C48.2983 36.9414 47.9471 36.9474 47.7346 37.1732C47.5222 37.3921 47.5356 37.7438 47.7545 37.9567L50.0236 40.1199C50.0301 40.1199 50.0301 40.1199 50.037 40.1263C50.6474 40.7104 51.0256 41.5462 51.0653 42.4089C51.1116 43.284 50.8131 44.1074 50.236 44.7114C49.042 45.9655 46.9386 45.9785 45.6381 44.7447L42.566 41.8189C42.3406 41.6074 41.9889 41.6134 41.7765 41.8388C41.565 42.0577 41.5775 42.4094 41.7964 42.6219L43.7202 44.4536C44.9943 45.6675 45.047 47.6913 43.8331 48.9649C42.6257 50.239 40.6019 50.2854 39.3283 49.0779L38.2866 48.0829C38.2801 48.0829 38.2731 48.0764 38.2667 48.069C38.2667 48.0625 38.2667 48.0625 38.2602 48.0625L36.2567 46.1516C36.0314 45.9392 35.6796 45.9461 35.4672 46.1715C35.2548 46.3904 35.2682 46.7486 35.4871 46.9546L37.5104 48.8784C38.7775 50.0923 38.8243 52.1096 37.6164 53.3832C36.4025 54.6498 34.3852 54.7026 33.1116 53.4961L26.1595 46.8809L16.5726 37.4001V37.3936H16.5662L15.093 35.934L11.4907 32.4574L8.92957 29.9889C7.2112 28.3575 7.14509 25.6298 8.77684 23.9114C8.78332 23.9114 8.78332 23.9114 8.78332 23.9049L16.0216 16.2982L23.2599 8.69148L26.6503 9.70639C26.1856 10.1641 25.8274 10.7347 25.6419 11.385L21.6479 24.999C21.3559 25.994 21.4688 27.0492 21.9663 27.9582C22.4638 28.8671 23.2867 29.5307 24.2817 29.8223C24.6464 29.9282 25.0115 29.9815 25.3832 29.9815C26.0269 29.9815 26.6573 29.8223 27.2409 29.5039C28.1498 29.0064 28.8134 28.1835 29.105 27.1885L32.1436 17.1037L36.3301 16.4271L56.6059 36.0399Z" fill="black"/>
<rect x="0.558838" y="22.2606" width="29.4231" height="6.17456" rx="3.08728" transform="rotate(-46.4487 0.558838 22.2606)" fill="#01D19F"/>
<rect x="60.4355" y="25.579" width="29.4231" height="6.17456" rx="3.08728" transform="rotate(-134.898 60.4355 25.579)" fill="#01D19F"/>
</svg>
